<svg xmlns="http://www.w3.org/2000/svg" viewBox="0 0 800 500" width="800" height="500">
  <!-- background -->
  <rect width="800" height="500" fill="#f8f9fa"/>

  <!-- navbar -->
  <rect width="800" height="56" fill="#212529"/>
  <rect x="16" y="16" width="120" height="24" rx="3" fill="#fff" opacity=".9"/>
  <rect x="160" y="20" width="48" height="16" rx="2" fill="#adb5bd"/>
  <rect x="220" y="20" width="48" height="16" rx="2" fill="#adb5bd"/>
  <rect x="280" y="20" width="48" height="16" rx="2" fill="#adb5bd"/>
  <rect x="680" y="14" width="88" height="28" rx="4" fill="#0d6efd"/>

  <!-- hero -->
  <rect y="56" width="800" height="180" fill="#e9ecef"/>
  <rect x="200" y="96" width="400" height="28" rx="4" fill="#212529" opacity=".15"/>
  <rect x="280" y="140" width="240" height="18" rx="3" fill="#6c757d" opacity=".4"/>
  <rect x="300" y="178" width="88" height="32" rx="4" fill="#0d6efd"/>
  <rect x="404" y="178" width="88" height="32" rx="4" fill="#fff" stroke="#0d6efd" stroke-width="2"/>

  <!-- cards row -->
  <rect x="16" y="260" width="236" height="140" rx="6" fill="#fff" stroke="#dee2e6" stroke-width="1"/>
  <rect x="16" y="260" width="236" height="40" rx="6" fill="#0d6efd"/>
  <rect x="16" y="286" width="236" height="14" rx="0" fill="#0d6efd"/>
  <rect x="28" y="314" width="140" height="12" rx="2" fill="#212529" opacity=".2"/>
  <rect x="28" y="334" width="200" height="10" rx="2" fill="#6c757d" opacity=".3"/>
  <rect x="28" y="350" width="200" height="10" rx="2" fill="#6c757d" opacity=".3"/>
  <rect x="28" y="370" width="72" height="22" rx="4" fill="#0d6efd"/>

  <rect x="268" y="260" width="236" height="140" rx="6" fill="#fff" stroke="#dee2e6" stroke-width="1"/>
  <rect x="268" y="260" width="236" height="40" rx="6" fill="#6c757d"/>
  <rect x="268" y="286" width="236" height="14" rx="0" fill="#6c757d"/>
  <rect x="280" y="314" width="140" height="12" rx="2" fill="#212529" opacity=".2"/>
  <rect x="280" y="334" width="200" height="10" rx="2" fill="#6c757d" opacity=".3"/>
  <rect x="280" y="350" width="200" height="10" rx="2" fill="#6c757d" opacity=".3"/>
  <rect x="280" y="370" width="72" height="22" rx="4" fill="#6c757d"/>

  <rect x="520" y="260" width="236" height="140" rx="6" fill="#fff" stroke="#dee2e6" stroke-width="1"/>
  <rect x="520" y="260" width="236" height="40" rx="6" fill="#198754"/>
  <rect x="520" y="286" width="236" height="14" rx="0" fill="#198754"/>
  <rect x="532" y="314" width="140" height="12" rx="2" fill="#212529" opacity=".2"/>
  <rect x="532" y="334" width="200" height="10" rx="2" fill="#6c757d" opacity=".3"/>
  <rect x="532" y="350" width="200" height="10" rx="2" fill="#6c757d" opacity=".3"/>
  <rect x="532" y="370" width="72" height="22" rx="4" fill="#198754"/>

  <!-- footer -->
  <rect y="440" width="800" height="60" fill="#212529"/>
  <rect x="16" y="458" width="200" height="10" rx="2" fill="#adb5bd" opacity=".5"/>
  <rect x="16" y="474" width="140" height="10" rx="2" fill="#adb5bd" opacity=".3"/>
</svg>
